<svg xmlns="http://www.w3.org/2000/svg" width="1024" height="1024"><g fill="#302b22" stroke="#302b22"><text x="160" y="310" font-family="Georgia,serif" font-weight="bold" font-size="58" text-anchor="middle" dominant-baseline="central">1</text><text x="160" y="600" font-family="Georgia,serif" font-weight="bold" font-size="58" text-anchor="middle" dominant-baseline="central">2</text><text x="154" y="738" font-family="Georgia,serif" font-weight="bold" font-size="58" text-anchor="middle" dominant-baseline="central">3</text><text x="60" y="660" font-family="Georgia,serif" font-weight="bold" font-size="58" text-anchor="middle" dominant-baseline="central">4</text><text x="160" y="165" font-family="Georgia,serif" font-weight="bold" font-size="58" text-anchor="middle" dominant-baseline="central">5</text><text x="153" y="450" font-family="Georgia,serif" font-weight="bold" font-size="58" text-anchor="middle" dominant-baseline="central">6</text><path d="M 146 490 h 14 M 153 483 v 14 M 148 485 l 10 10 M 148 495 l 10 -10" stroke-width="3"/><text x="60" y="510" font-family="Georgia,serif" font-weight="bold" font-size="58" text-anchor="middle" dominant-baseline="central">7</text><text x="160" y="880" font-family="Georgia,serif" font-weight="bold" font-size="58" text-anchor="middle" dominant-baseline="central">8</text><text x="69" y="809" font-family="Georgia,serif" font-weight="bold" font-size="58" text-anchor="middle" dominant-baseline="central">9</text><text x="60" y="225" font-family="Georgia,serif" font-weight="bold" font-size="58" text-anchor="middle" dominant-baseline="central">10</text><text x="940" y="400" font-family="Georgia,serif" font-weight="bold" font-size="85" text-anchor="middle" dominant-baseline="central">1</text><text x="480" y="100" font-family="Georgia,serif" font-weight="bold" font-size="85" text-anchor="middle" dominant-baseline="central">2</text><text x="300" y="100" font-family="Georgia,serif" font-weight="bold" font-size="85" text-anchor="middle" dominant-baseline="central">3</text><text x="940" y="575" font-family="Georgia,serif" font-weight="bold" font-size="85" text-anchor="middle" dominant-baseline="central">4</text><text x="940" y="745" font-family="Georgia,serif" font-weight="bold" font-size="85" text-anchor="middle" dominant-baseline="central">5</text><text x="940" y="940" font-family="Georgia,serif" font-weight="bold" font-size="85" text-anchor="middle" dominant-baseline="central">6</text><path d="M 933 988 h 14 M 940 981 v 14 M 935 983 l 10 10 M 935 993 l 10 -10" stroke-width="3"/><g transform="translate(60 375)" fill="none" stroke-width="5"><path d="M -34 0 Q 0 -32 34 0 Q 0 32 -34 0Z"/><path d="M 0 -18 Q 12 0 0 18 Q -12 0 0 -18Z"/></g><g transform="translate(60 955)" fill="none" stroke-width="6" stroke-linecap="round"><path d="M 0 28 V -28 M -22 -8 L 0 -28 L 22 -8 M 0 5 L 21 -15"/></g></g></svg>